<svg xmlns="http://www.w3.org/2000/svg" viewBox="0 0 214.68 131"><defs><style>.cls-1{fill:#e5e5e5;}.cls-2{fill:#d9d9d9;}.cls-3{fill:#4455b7;}.cls-4{fill:#607b88;}.cls-5{fill:#518ff5;}.cls-6{fill:#fff;}.cls-7{fill:#41b883;}.cls-8{fill:#34495e;}</style></defs><title>logo_vlad</title><g id="Layer_2" data-name="Layer 2"><g id="Layer_1-2" data-name="Layer 1"><path class="cls-1" d="M206.4,131H155.17L138.86,26H206.4a8.28,8.28,0,0,1,8.28,8.27v88.46A8.28,8.28,0,0,1,206.4,131Z"/><path class="cls-2" d="M206.4,131H155.17L138.86,26h14.47l61.35,60.89v35.84A8.28,8.28,0,0,1,206.4,131Z"/><polygon class="cls-3" points="155.17 131 177.69 106.27 146.67 106.27 155.17 131"/><path class="cls-4" d="M195.61,61.92H206.4V56.86H181.82V48.71h-8.27V57H160.22v4.94h29.41a38.08,38.08,0,0,1-8.87,16.18c-5.38-6.35-6.87-10-6.87-10h-6.54a58.36,58.36,0,0,0,5.39,9.19,54.53,54.53,0,0,0,4.07,4.9c-5.43,5.56-8.43,8.31-8.43,8.31L172.51,94s3.81-3.44,8-7.73C187.39,93.49,196,101.9,196,101.9l3.91-4.25s-5.06-4.83-14.36-14.36l-1.09-1.13c1.54-1.69,3-3.39,4.19-5A41.71,41.71,0,0,0,195.61,61.92Z"/><path class="cls-5" d="M8.27,0H143.14l34.24,106.27H8.27A8.27,8.27,0,0,1,0,98V8.27A8.27,8.27,0,0,1,8.27,0Z"/><path class="cls-6" d="M120.13,48v8.4h11.73A10.09,10.09,0,0,1,127.55,63a12.12,12.12,0,0,1-4.74,1.87,13.83,13.83,0,0,1-5.13,0,12.55,12.55,0,0,1-4.79-2.06A13.4,13.4,0,0,1,108,56.22a13.07,13.07,0,0,1,0-8.38,13.3,13.3,0,0,1,3.12-5.08,12.64,12.64,0,0,1,12.75-3.31,11.75,11.75,0,0,1,4.64,2.73l4-4c.69-.71,1.42-1.39,2.09-2.12a21.09,21.09,0,0,0-6.93-4.29,21.54,21.54,0,1,0-13,41,23,23,0,0,0,11,.12,19,19,0,0,0,14.25-13.52A25.1,25.1,0,0,0,140.38,48Z"/><path class="cls-1" d="M82.23,0H8.28A8.28,8.28,0,0,0,0,8.29V98a8.28,8.28,0,0,0,8.27,8.28h74Z"/><polygon class="cls-2" points="81.92 106.25 81.92 44.69 69.6 32.28 51.22 32.28 40.79 81.56 64.66 106.25 81.92 106.25"/><path class="cls-7" d="M47.4,32.16l-6.6,11.4-6.57-11.4-21.93,0,28.48,49.4L69.32,32.18Z"/><path class="cls-8" d="M47.4,32.16l-6.6,11.4-6.57-11.4H23.71L40.79,61.79,57.92,32.17Z"/></g></g></svg>